<?xml version="1.0" encoding="UTF-8" standalone="no"?>
<svg
   xmlns:dc="http://purl.org/dc/elements/1.1/"
   xmlns:cc="http://creativecommons.org/ns#"
   xmlns:rdf="http://www.w3.org/1999/02/22-rdf-syntax-ns#"
   xmlns:svg="http://www.w3.org/2000/svg"
   xmlns="http://www.w3.org/2000/svg"
   id="svg831"
   version="1.1"
   viewBox="0 0 8.7973652 8.599"
   height="8.599mm"
   width="8.7973652mm">
  <defs
     id="defs825" />
  <metadata
     id="metadata828">
    <rdf:RDF>
      <cc:Work
         rdf:about="">
        <dc:format>image/svg+xml</dc:format>
        <dc:type
           rdf:resource="http://purl.org/dc/dcmitype/StillImage" />
        <dc:title></dc:title>
      </cc:Work>
    </rdf:RDF>
  </metadata>
  <g
     transform="translate(-165.93151,-106.35824)"
     id="layer1">
    <path
       id="Shape-3-7"
       d="m 166.57663,114.95724 c 0.10378,0 0.20802,-0.0394 0.28732,-0.11834 l 3.97547,-3.89589 c 0.15824,-0.15784 0.15834,-0.41267 0.003,-0.57051 l -3.97547,-3.89588 c -0.15861,-0.15784 -0.415,-0.15784 -0.5736,0 l -0.23978,0.23822 c -0.15861,0.15786 -0.15861,0.41319 0,0.57103 l 3.44888,3.37189 -3.45198,3.37189 c -0.15861,0.15783 -0.15861,0.41266 0,0.5705 l 0.23926,0.23875 c 0.0793,0.0789 0.18303,0.11834 0.2868,0.11834 z"
       style="fill:#000000;fill-opacity:0.98895025;fill-rule:nonzero;stroke-width:0.26458332;stroke:none;stroke-opacity:1" />
    <path
       id="Shape-3-5"
       d="m 174.08376,106.35824 c -0.10378,0 -0.20802,0.0394 -0.28732,0.11834 l -3.97547,3.89589 c -0.15824,0.15784 -0.15834,0.41267 -0.003,0.57051 l 3.97547,3.89588 c 0.15861,0.15784 0.415,0.15784 0.5736,0 l 0.23978,-0.23822 c 0.15861,-0.15786 0.15861,-0.41319 0,-0.57103 l -3.44888,-3.37189 3.45198,-3.37189 c 0.15861,-0.15783 0.15861,-0.41266 0,-0.5705 l -0.23926,-0.23875 c -0.0793,-0.0789 -0.18303,-0.11834 -0.2868,-0.11834 z"
       style="fill:#000000;fill-opacity:0.98895025;fill-rule:nonzero;stroke-width:0.26458332;stroke:none;stroke-opacity:1" />
  </g>
</svg>
