<?xml version="1.0" encoding="UTF-8" standalone="no"?>
<!-- Created with Inkscape (http://www.inkscape.org/) -->

<svg
   xmlns:dc="http://purl.org/dc/elements/1.1/"
   xmlns:cc="http://creativecommons.org/ns#"
   xmlns:rdf="http://www.w3.org/1999/02/22-rdf-syntax-ns#"
   xmlns:svg="http://www.w3.org/2000/svg"
   xmlns="http://www.w3.org/2000/svg"
   xmlns:sodipodi="http://sodipodi.sourceforge.net/DTD/sodipodi-0.dtd"
   xmlns:inkscape="http://www.inkscape.org/namespaces/inkscape"
   width="5.2916932mm"
   height="4.5861025mm"
   viewBox="0 0 18.750094 16.249969"
   id="svg4895"
   version="1.1"
   inkscape:version="0.91 r13725"
   sodipodi:docname="edit.svg">
  <defs
     id="defs4897">
    <clipPath
       clipPathUnits="userSpaceOnUse"
       id="clipPath128">
      <path
         d="m 631.4768,689.2422 0.8333,0.8123 c 0.1303,0.127 0.3568,0.0381 0.3568,-0.1447 l 0,-3.6912 c 0,-0.6728 -0.5599,-1.2186 -1.25,-1.2186 l -9.1669,0 c -0.6901,0 -1.25,0.5458 -1.25,1.2186 l 0,8.9362 c 0,0.6727 0.5599,1.2185 1.25,1.2185 l 7.1226,0 c 0.1849,0 0.2786,-0.2183 0.1484,-0.3478 l -0.8333,-0.8123 c -0.0391,-0.0381 -0.0912,-0.0584 -0.1485,-0.0584 l -6.2892,0 0,-8.9362 9.1669,0 0,2.8814 c 0,0.0533 0.0208,0.1041 0.0599,0.1422 z m 4.0782,5.123 -6.8387,-6.6666 -2.3542,-0.2538 c -0.6823,-0.0737 -1.2631,0.4874 -1.1875,1.1576 l 0.2604,2.295 6.8387,6.6666 c 0.5963,0.5813 1.5599,0.5813 2.1537,0 l 1.125,-1.0967 c 0.5964,-0.5814 0.5964,-1.5232 0.003,-2.1021 z m -2.573,-0.7844 -1.513,1.475 -4.8387,-4.7195 -0.1901,-1.6577 1.7006,0.1853 4.8412,4.7169 z m 1.6876,2.0233 -1.1251,1.0967 c -0.1067,0.1041 -0.2812,0.1041 -0.3854,0 l -0.8047,-0.7844 1.5131,-1.475 0.8047,0.7844 c 0.1041,0.1067 0.1041,0.2742 -0.003,0.3783 z"
         id="path130"
         inkscape:connector-curvature="0" />
    </clipPath>
    <clipPath
       clipPathUnits="userSpaceOnUse"
       id="clipPath134">
      <path
         d="m 0,0 1366,0 0,768 L 0,768 0,0 Z"
         id="path136"
         inkscape:connector-curvature="0" />
    </clipPath>
  </defs>
  <sodipodi:namedview
     id="base"
     pagecolor="#ffffff"
     bordercolor="#666666"
     borderopacity="1.0"
     inkscape:pageopacity="0"
     inkscape:pageshadow="2"
     inkscape:zoom="15.839192"
     inkscape:cx="4.4754438"
     inkscape:cy="-2.342815"
     inkscape:document-units="px"
     inkscape:current-layer="layer1"
     showgrid="false"
     fit-margin-top="0"
     fit-margin-left="0"
     fit-margin-right="0"
     fit-margin-bottom="0"
     inkscape:window-width="1920"
     inkscape:window-height="1031"
     inkscape:window-x="0"
     inkscape:window-y="25"
     inkscape:window-maximized="1" />
  <metadata
     id="metadata4900">
    <rdf:RDF>
      <cc:Work
         rdf:about="">
        <dc:format>image/svg+xml</dc:format>
        <dc:type
           rdf:resource="http://purl.org/dc/dcmitype/StillImage" />
        <dc:title></dc:title>
      </cc:Work>
    </rdf:RDF>
  </metadata>
  <g
     inkscape:label="Layer 1"
     inkscape:groupmode="layer"
     id="layer1"
     transform="translate(-545.62495,-359.95153)">
    <g
       transform="matrix(1.25,0,0,-1.25,-230.62505,1232.4515)"
       id="g124"
       style="fill:#6d6e71;fill-opacity:1;stroke:none;stroke-opacity:1">
      <g
         id="g126"
         clip-path="url(#clipPath128)"
         style="fill:#6d6e71;fill-opacity:1;stroke:none;stroke-opacity:1">
        <g
           id="g132"
           clip-path="url(#clipPath134)"
           style="fill:#6d6e71;fill-opacity:1;stroke:none;stroke-opacity:1">
          <path
             d="m 616,680 25,0 0,23 -25,0 0,-23 z"
             style="fill:#6d6e71;fill-opacity:1;fill-rule:nonzero;stroke:none;stroke-opacity:1"
             id="path138-3"
             inkscape:connector-curvature="0" />
        </g>
      </g>
    </g>
  </g>
</svg>
