<?xml version="1.0" encoding="UTF-8" standalone="no"?>
<!-- Generator: Adobe Illustrator 22.0.0, SVG Export Plug-In . SVG Version: 6.00 Build 0)  -->

<svg
   xmlns:dc="http://purl.org/dc/elements/1.1/"
   xmlns:cc="http://creativecommons.org/ns#"
   xmlns:rdf="http://www.w3.org/1999/02/22-rdf-syntax-ns#"
   xmlns:svg="http://www.w3.org/2000/svg"
   xmlns="http://www.w3.org/2000/svg"
   xmlns:sodipodi="http://sodipodi.sourceforge.net/DTD/sodipodi-0.dtd"
   xmlns:inkscape="http://www.inkscape.org/namespaces/inkscape"
   version="1.1"
   id="Layer_1"
   x="0px"
   y="0px"
   viewBox="0 0 402.89998 112.1"
   xml:space="preserve"
   sodipodi:docname="Eucalc_color Logo_negativo.svg"
   width="402.89999"
   height="112.1"
   inkscape:version="0.92.4 (5da689c313, 2019-01-14)"><metadata
   id="metadata41"><rdf:RDF><cc:Work
       rdf:about=""><dc:format>image/svg+xml</dc:format><dc:type
         rdf:resource="http://purl.org/dc/dcmitype/StillImage" /><dc:title></dc:title></cc:Work></rdf:RDF></metadata><defs
   id="defs39" /><sodipodi:namedview
   pagecolor="#ffffff"
   bordercolor="#666666"
   borderopacity="1"
   objecttolerance="10"
   gridtolerance="10"
   guidetolerance="10"
   inkscape:pageopacity="0"
   inkscape:pageshadow="2"
   inkscape:window-width="1920"
   inkscape:window-height="1025"
   id="namedview37"
   showgrid="false"
   fit-margin-top="0"
   fit-margin-left="0"
   fit-margin-right="0"
   fit-margin-bottom="0"
   inkscape:zoom="2.2425964"
   inkscape:cx="115.11597"
   inkscape:cy="13.531134"
   inkscape:window-x="0"
   inkscape:window-y="31"
   inkscape:window-maximized="1"
   inkscape:current-layer="Layer_1" />
<style
   type="text/css"
   id="style2">
	.st0{fill:#FFFFFF;}
	.st1{fill:#8DC741;}
	.st2{fill:#27AAE1;}
	.st3{fill:#6D6E71;}
</style>
<g
   id="g10"
   transform="translate(-221.8,-236.9)">
	<g
   id="g8">
		<path
   class="st0"
   d="M 342.3,320.4 V 265.3 H 374 v 9.6 H 354 V 287 h 18.7 v 9.6 H 354 v 14.1 h 20 v 9.7 z"
   id="path4"
   inkscape:connector-curvature="0"
   style="fill:#ffffff" />
		<path
   class="st0"
   d="m 385.2,300.8 v -35.5 h 11.7 v 33.8 c 0,4.3 0.9,7.4 2.6,9.4 1.7,2 4.5,3 8.5,3 3.8,0 6.6,-1 8.3,-3 1.7,-2 2.6,-5.1 2.6,-9.4 v -33.7 h 11.7 V 301 c 0,4.1 -0.9,7.6 -2.7,10.7 -1.8,3.1 -4.5,5.4 -7.9,7 -3.4,1.6 -7.5,2.4 -12.2,2.4 -7.1,0 -12.6,-1.8 -16.5,-5.4 -4.2,-3.6 -6.1,-8.6 -6.1,-14.9 z"
   id="path6"
   inkscape:connector-curvature="0"
   style="fill:#ffffff" />
	</g>
</g>
<g
   id="g22"
   transform="translate(-221.8,-236.9)">
	<g
   id="g20">
		<path
   class="st0"
   d="m 441.5,292.5 c 0,-5.7 1,-10.7 3,-15 2,-4.3 4.9,-7.6 8.9,-9.9 3.9,-2.3 8.5,-3.4 13.9,-3.4 5.6,0 10.8,1.2 15.6,3.5 l -3.2,7.5 c -1.9,-0.9 -3.8,-1.7 -5.9,-2.3 -2.1,-0.7 -4.3,-1 -6.5,-1 -5.2,0 -9.2,1.8 -12.2,5.5 -3,3.7 -4.4,8.7 -4.4,15.2 0,6.8 1.4,11.9 4.3,15.3 2.9,3.4 7,5.2 12.4,5.2 2.3,0 4.6,-0.2 6.8,-0.7 2.2,-0.5 4.5,-1.1 6.8,-1.8 v 7.7 c -4.3,1.6 -9.2,2.5 -14.7,2.5 -8.1,0 -14.2,-2.4 -18.3,-7.3 -4.4,-4.9 -6.5,-11.9 -6.5,-21 z"
   id="path12"
   inkscape:connector-curvature="0"
   style="fill:#ffffff" />
		<path
   class="st0"
   d="m 485.9,320.1 20.6,-55.3 h 9.8 l 20.6,55.3 h -9.6 l -5.5,-15.3 h -21.1 l -5.4,15.3 z m 17.5,-23 h 16.1 l -5.2,-15 c -0.4,-1 -0.9,-2.6 -1.6,-4.7 -0.7,-2.2 -1.1,-3.7 -1.4,-4.7 -0.7,3.1 -1.7,6.5 -3,10.1 z"
   id="path14"
   inkscape:connector-curvature="0"
   style="fill:#ffffff" />
		<path
   class="st0"
   d="M 544.2,320.1 V 265 h 9 v 47.4 h 23.3 v 7.7 z"
   id="path16"
   inkscape:connector-curvature="0"
   style="fill:#ffffff" />
		<path
   class="st0"
   d="m 583.3,292.5 c 0,-5.7 1,-10.7 3,-15 2,-4.3 4.9,-7.6 8.9,-9.9 3.9,-2.3 8.5,-3.4 13.9,-3.4 5.6,0 10.8,1.2 15.6,3.5 l -3.2,7.5 c -1.9,-0.9 -3.8,-1.7 -5.9,-2.3 -2.1,-0.7 -4.3,-1 -6.5,-1 -5.2,0 -9.2,1.8 -12.2,5.5 -3,3.7 -4.4,8.7 -4.4,15.2 0,6.8 1.4,11.9 4.3,15.3 2.9,3.4 7,5.2 12.4,5.2 2.3,0 4.6,-0.2 6.8,-0.7 2.2,-0.5 4.5,-1.1 6.8,-1.8 v 7.7 c -4.3,1.6 -9.2,2.5 -14.7,2.5 -8.1,0 -14.2,-2.4 -18.3,-7.3 -4.4,-4.9 -6.5,-11.9 -6.5,-21 z"
   id="path18"
   inkscape:connector-curvature="0"
   style="fill:#ffffff" />
	</g>
</g>
<path
   class="st0"
   d="M 48.6,0 0,28 v 56.1 l 48.6,28 48.6,-28 v -56 z M 47,107.7 3.2,82.3 V 30.5 H 47 Z M 47,27.4 H 7.5 L 47,4.6 Z M 50.2,4.6 72.5,17.5 V 81.8 H 50.2 Z m 0,103.1 V 84.9 H 89.6 Z M 94,81.7 H 75.6 V 19.2 L 94,29.8 Z"
   id="path24"
   inkscape:connector-curvature="0"
   style="fill:#ffffff" />
<polygon
   class="st1"
   points="268.8,241.5 229.3,264.3 268.8,264.3 "
   id="polygon26"
   style="fill:#8dc741"
   transform="translate(-221.8,-236.9)" />
<polygon
   class="st1"
   points="225,319.2 268.8,344.6 268.8,267.5 225,267.5 "
   id="polygon28"
   style="fill:#8dc741"
   transform="translate(-221.8,-236.9)" />
<polygon
   class="st2"
   points="294.2,254.4 272,241.5 272,318.6 294.2,318.6 "
   id="polygon30"
   style="fill:#27aae1"
   transform="translate(-221.8,-236.9)" />
<polygon
   class="st3"
   points="311.4,321.8 272,321.8 272,344.6 "
   id="polygon32"
   style="fill:#6d6e71"
   transform="translate(-221.8,-236.9)" />
<polygon
   class="st2"
   points="297.4,318.6 315.8,318.6 315.8,266.8 297.4,256.2 "
   id="polygon34"
   style="fill:#27aae1"
   transform="translate(-221.8,-236.9)" />
</svg>